<svg viewBox="0 0 324.69 267.66" xmlns="http://www.w3.org/2000/svg"><g stroke="#000" stroke-width=".5"><path d="m128.36 178.15 2.36-12.58a.46.46 0 0 0 -.22-.48l-12-6.85a.46.46 0 0 0 -.68.31l-4.37 23.45a.45.45 0 0 0 .22.48s11 6.67 12.54 7.16 25.14 6.95 25.14 6.95a.47.47 0 0 0 .54-.25l1.23-2.68a.47.47 0 0 0 -.18-.59l-24.36-14.48a.48.48 0 0 1 -.22-.44z" fill="#cef6da" stroke-linecap="round" stroke-linejoin="round"/><path d="m145.8 188.49c.34-2.81.34-4.79-.07-4.87-.58-.11-1.76 3.54-2.62 8.16s-1.09 8.45-.51 8.56 1.27-2.38 2-5.26m4.8-4.28c.27-2.15.26-3.67-.05-3.73s-1.35 2.72-2 6.25-.83 6.47-.39 6.55 1-1.82 1.52-4" fill="none" stroke-linecap="round" stroke-linejoin="round"/><path d="m57.49 119.25c1.44-7.72 87.29 8.9 87.29 8.9s85.46 18.74 84.61 23.27c-5.09 27.19-47.7 42-95.17 33.16s-81.82-38.13-76.73-65.33z" fill="#cef6da" stroke-miterlimit="10"/><ellipse cx="149.29" cy="136.25" fill="#cef6da" rx="16.96" ry="140.26" stroke-miterlimit="10" transform="matrix(.18395135 -.98293535 .98293535 .18395135 -12.099004 257.930679)"/><path d="m228.58 143.82c-2.34 12.49-88.13-4.45-88.13-4.45s-85.14-20.37-83.77-27.72c8.24-44 53.4-72.5 100.87-63.62s79.27 51.77 71.03 95.79z" fill="none" stroke-miterlimit="10"/><g stroke-linecap="round" stroke-linejoin="round"><path d="m114.45 184 2.71-14.46a.52.52 0 0 0 -.26-.55l-13.76-7.87a.52.52 0 0 0 -.77.36l-5.05 27a.53.53 0 0 0 .25.55s12.63 7.67 14.41 8.24 28.88 8 28.88 8a.55.55 0 0 0 .62-.29l1.41-3.08a.5.5 0 0 0 -.21-.67l-28-16.64a.53.53 0 0 1 -.23-.59z" fill="#cef6da"/><path d="m134.48 195.91c.4-3.23.4-5.51-.08-5.6-.67-.12-2 4.07-3 9.38s-1.26 9.7-.59 9.83c.49.09 1.46-2.73 2.27-6.05m5.54-4.91c.31-2.47.31-4.21-.06-4.28s-1.54 3.12-2.3 7.18-1 7.43-.45 7.52 1.12-2.09 1.74-4.63" fill="none"/><path d="m226.09 148.36s33.51-14 39.1-43.82l34.27 6.46s-15.34 48.27-53.19 41.19z" fill="#cef6da"/></g></g></svg>