<svg viewBox="0 0 278.75 278.75" xmlns="http://www.w3.org/2000/svg"><g stroke="#000" stroke-linecap="round" stroke-linejoin="round" stroke-width=".5"><g fill="#cef6da"><rect height="68.79" rx="3.27" width="113.59" x="53.03" y="121.22"/><path d="m160.38 121h-30.7v-8.81a1.72 1.72 0 0 0 -1.71-1.71h-70.36a1.72 1.72 0 0 0 -1.71 1.71v8.81h-5.69a1.72 1.72 0 0 0 -1.71 1.71v65.38a1.72 1.72 0 0 0 1.71 1.71h110.17a1.72 1.72 0 0 0 1.71-1.71v-65.35a1.72 1.72 0 0 0 -1.71-1.74z"/><circle cx="191.89" cy="91.33" r="3.32"/><circle cx="191.89" cy="106.38" r="3.32"/></g><path d="m134.61 115.67 35.26-24.89h15.04" fill="none"/><path d="m204.1 86.63h36.38v8.02h-36.38zm0 15.28h36.38v8.02h-36.38z" fill="#cef6da"/><circle cx="191.89" cy="121.44" fill="#cef6da" r="3.32"/><circle cx="191.89" cy="136.49" fill="#cef6da" r="3.32"/><path d="m204.1 117.2h36.38v8.02h-36.38zm0 15.28h36.38v8.02h-36.38z" fill="#cef6da"/></g></svg>