<svg viewBox="0 0 324.69 267.66" xmlns="http://www.w3.org/2000/svg"><path d="m25.15 35.49h259.77m-259.77 14.45h259.77m-259.77 14.45h259.77m-259.77 14.45h259.77m-259.77 14.45h259.77m-259.77 14.45h259.77m-259.77 14.45h259.77m-259.77 14.46h259.77m-259.77 14.45h259.77m-259.77 14.45h259.77m-259.77 14.45h259.77m-259.77 14.45h259.77m-259.77 14.45h259.77m-259.77 14.45h259.77m-71.75-187.86v187.6m-14.46-187.6v187.6m-14.45-187.6v187.6m-14.45-187.6v187.6m-14.45-187.6v187.6m-14.45-187.6v187.6m-14.45-187.6v187.6m-14.45-187.6v187.6m-14.45-187.6v187.6m-14.45-187.6v187.6m-14.45-187.6v187.6m-14.46-187.6v187.6m-14.45-187.6v187.6m-14.45-187.6v187.6m259.62-187.6v187.6m-14.45-187.6v187.6m-14.45-187.6v187.6m-14.45-187.6v187.6m-14.45-187.6v187.6" fill="none" stroke="#000" stroke-miterlimit="10" stroke-width=".25"/><path d="m124.46 180.47a62.48 62.48 0 1 1 62.48-62.47 62.55 62.55 0 0 1 -62.48 62.47z" fill="#cef6da"/><path d="m124.46 55.76a62.23 62.23 0 1 1 -62.23 62.24 62.29 62.29 0 0 1 62.23-62.23m0-.5a62.73 62.73 0 1 0 62.73 62.73 62.73 62.73 0 0 0 -62.73-62.73z"/><circle cx="124.46" cy="117.99" fill="#cef6da" r="50.58"/><path d="m124.46 67.66a50.33 50.33 0 1 1 -50.33 50.34 50.38 50.38 0 0 1 50.33-50.33m0-.5a50.83 50.83 0 1 0 50.83 50.83 50.83 50.83 0 0 0 -50.83-50.83z"/><path d="m124.46 162.62a44.63 44.63 0 1 1 44.63-44.62 44.68 44.68 0 0 1 -44.63 44.62z" fill="#cef6da"/><path d="m124.46 73.61a44.38 44.38 0 1 1 -44.38 44.39 44.43 44.43 0 0 1 44.38-44.38m0-.5a44.88 44.88 0 1 0 44.88 44.88 44.88 44.88 0 0 0 -44.88-44.88z"/><g stroke="#000" stroke-miterlimit="10"><path d="m118.26 83-1.61-9.14a44.67 44.67 0 0 0 -7.51 2l3.18 8.74a34.65 34.65 0 0 1 5.94-1.6zm6.17-.56a34.81 34.81 0 0 1 6.08.53l1.61-9.13a45.06 45.06 0 0 0 -7.73-.66v9.26z" fill="#cef6da" stroke-width=".5"/><path d="m124.38 82.44v-9.26a45.06 45.06 0 0 0 -7.73.66l1.61 9.16a36.27 36.27 0 0 1 6.12-.56zm-11.97 2.18-3.18-8.74a43.71 43.71 0 0 0 -7 3.28l4.66 8.07a35.28 35.28 0 0 1 5.52-2.61zm24.05-.07 3.17-8.72a44.65 44.65 0 0 0 -7.51-2l-1.61 9.17a34.72 34.72 0 0 1 5.95 1.55zm-29.61 2.68-4.66-8.07a44.18 44.18 0 0 0 -6.37 4.46l6 7.15a35 35 0 0 1 5.03-3.54z" fill="#cef6da" stroke-width=".5"/><path d="m101.82 90.77-6-7.15c-1 .85-2 1.75-2.95 2.7s-1.75 1.83-2.57 2.79l7.17 6a35.75 35.75 0 0 1 4.35-4.34zm29.07 61.75 1.67 9.46a44.28 44.28 0 0 0 7.55-2l-3.28-9a34.63 34.63 0 0 1 -5.94 1.54zm11.51-4.2 4.78 8.29a45.25 45.25 0 0 0 6.38-4.52l-6.13-7.31a35.29 35.29 0 0 1 -5.03 3.54z" fill="#cef6da" stroke-width=".5"/><path d="m136.83 150.93 3.28 9a43.85 43.85 0 0 0 7.07-3.33l-4.78-8.29a35.81 35.81 0 0 1 -5.57 2.62zm14.94-10.5 7.29 6.11a45 45 0 0 0 4.46-6.4l-8.22-4.75a35.32 35.32 0 0 1 -3.53 5.04zm-27 12.63v9.61a45.77 45.77 0 0 0 7.79-.69l-1.67-9.46a35.35 35.35 0 0 1 -6.12.54zm30.53-17.67 8.22 4.75a44.57 44.57 0 0 0 3.27-7.09l-8.9-3.23a34.83 34.83 0 0 1 -2.59 5.57zm-7.87 9.39 6.13 7.31q1.41-1.2 2.73-2.52c1-1 1.9-2 2.77-3l-7.29-6.11a35.66 35.66 0 0 1 -4.34 4.32z" fill="#cef6da" stroke-width=".5"/><path d="m124.46 175.6a57.62 57.62 0 0 0 57.59-55.95v-1.66h-6.79m-108.41.01c0-1.2 0-2.39.11-3.58a57.61 57.61 0 0 1 57.5-54v6.79" fill="none" stroke-width=".5"/><path d="m121.99 104.05h-16.64l-8.32 14.41 8.32 14.41h16.64l8.32-14.41z" fill="none" stroke-width=".25"/><path d="m119.61 104.69-16.39 2.89-5.69 15.63 10.7 12.75 16.38-2.89 5.69-15.64z" fill="none" stroke-width=".25"/><path d="m117.37 105.73-15.63 5.69-2.89 16.39 12.74 10.69 15.64-5.69 2.89-16.38z" fill="none" stroke-width=".25"/><path d="m115.35 107.15-14.41 8.32v16.64l14.41 8.32 14.41-8.32v-16.64z" fill="none" stroke-width=".25"/><path d="m113.61 108.89-12.75 10.7 2.89 16.39 15.64 5.69 12.74-10.7-2.88-16.38z" fill="none" stroke-width=".25"/><path d="m112.19 110.92-10.69 12.74 5.69 15.64 16.39 2.89 10.69-12.75-5.69-15.63z" fill="none" stroke-width=".25"/><path d="m111.15 113.16-8.32 14.41 8.32 14.41h16.64l8.32-14.41-8.32-14.41z" fill="none" stroke-width=".25"/><path d="m110.52 115.54-5.69 15.64 10.69 12.74 16.39-2.89 5.69-15.63-10.7-12.75z" fill="none" stroke-width=".25"/><path d="m110.3 118-2.89 16.38 12.75 10.7 15.64-5.69 2.89-16.39-12.75-10.69z" fill="none" stroke-width=".25"/><path d="m110.52 120.46v16.64l14.41 8.32 14.41-8.32v-16.64l-14.41-8.32z" fill="none" stroke-width=".25"/><path d="m111.16 122.84 2.89 16.39 15.64 5.69 12.74-10.7-2.89-16.39-15.63-5.69z" fill="none" stroke-width=".25"/><path d="m112.21 125.08 5.69 15.63 16.38 2.89 10.7-12.75-5.69-15.63-16.39-2.89z" fill="none" stroke-width=".25"/><path d="m113.62 127.1 8.32 14.41h16.64l8.32-14.41-8.32-14.41h-16.64z" fill="none" stroke-width=".25"/><path d="m115.37 128.84 10.7 12.75 16.38-2.89 5.7-15.64-10.7-12.75-16.39 2.89z" fill="none" stroke-width=".25"/><path d="m117.39 130.25 12.75 10.7 15.64-5.69 2.89-16.39-12.75-10.69-15.64 5.69z" fill="none" stroke-width=".25"/><path d="m119.63 131.29 14.41 8.33 14.41-8.33v-16.63l-14.41-8.33-14.41 8.33z" fill="none" stroke-width=".25"/><path d="m122.02 131.93 15.63 5.69 12.75-10.69-2.89-16.39-15.64-5.69-12.74 10.7z" fill="none" stroke-width=".25"/><path d="m124.47 132.15 16.39 2.88 10.7-12.74-5.69-15.64-16.39-2.89-10.7 12.75z" fill="none" stroke-width=".25"/><path d="m126.93 131.93h16.64l8.32-14.41-8.32-14.41h-16.64l-8.32 14.41z" fill="none" stroke-width=".25"/><path d="m129.32 131.29 16.38-2.89 5.69-15.64-10.69-12.75-16.39 2.89-5.69 15.64z" fill="none" stroke-width=".25"/><path d="m131.55 130.24 15.64-5.69 2.89-16.39-12.75-10.69-15.64 5.69-2.88 16.39z" fill="none" stroke-width=".25"/><path d="m133.57 128.82 14.41-8.32v-16.64l-14.41-8.31-14.41 8.31v16.64z" fill="none" stroke-width=".25"/><path d="m135.32 127.08 12.74-10.7-2.89-16.38-15.63-5.7-12.75 10.7 2.89 16.39z" fill="none" stroke-width=".25"/><path d="m136.73 125.06 10.7-12.75-5.69-15.64-16.39-2.89-10.7 12.75 5.69 15.64z" fill="none" stroke-width=".25"/><path d="m137.77 122.82 8.32-14.41-8.32-14.41h-16.64l-8.32 14.41 8.32 14.41z" fill="none" stroke-width=".25"/><path d="m138.41 120.43 5.69-15.63-10.7-12.75-16.38 2.89-5.69 15.64 10.69 12.74z" fill="none" stroke-width=".25"/><path d="m138.62 117.97 2.89-16.38-12.75-10.7-15.63 5.69-2.89 16.39 12.74 10.7z" fill="none" stroke-width=".25"/><path d="m138.4 115.52v-16.64l-14.41-8.32-14.41 8.32v16.64l14.41 8.32z" fill="none" stroke-width=".25"/><path d="m137.76 113.13-2.89-16.38-15.63-5.7-12.75 10.7 2.89 16.39 15.64 5.69z" fill="none" stroke-width=".25"/><path d="m136.72 110.9-5.69-15.64-16.39-2.89-10.7 12.75 5.7 15.63 16.38 2.89z" fill="none" stroke-width=".25"/><path d="m135.3 108.88-8.32-14.41h-16.64l-8.32 14.41 8.32 14.41h16.64z" fill="none" stroke-width=".25"/><path d="m133.55 107.13-10.69-12.74-16.39 2.89-5.69 15.63 10.7 12.75 16.38-2.89z" fill="none" stroke-width=".25"/><path d="m131.53 105.72-12.75-10.7-15.63 5.69-2.89 16.39 12.74 10.7 15.64-5.69z" fill="none" stroke-width=".25"/><path d="m129.29 104.68-14.41-8.32-14.41 8.32v16.64l14.41 8.32 14.41-8.32z" fill="none" stroke-width=".25"/><path d="m126.91 104.04-15.64-5.69-12.74 10.7 2.89 16.38 15.63 5.69 12.75-10.69z" fill="none" stroke-width=".25"/><path d="m124.45 103.83-16.39-2.89-10.69 12.75 5.69 15.63 16.39 2.89 10.69-12.75z" fill="none" stroke-width=".25"/><circle cx="124.46" cy="117.99" fill="#cef6da" r="13.95" stroke-width=".5"/><path d="m134.24 123.63v-11.29l-9.78-5.64-9.77 5.64v11.29l9.77 5.64z" fill="#cef6da" stroke-width=".5"/><rect fill="#cef6da" height="88.93" rx="10.75" stroke-width=".5" width="66.68" x="207.26" y="124.32"/><path d="m213.17 131.04h49.85v3.3h-49.85z"/><rect fill="#cef6da" height="38.72" rx="16.81" stroke-width=".5" width="33.61" x="222.09" y="141.51"/><path d="m238.83 162.21a16.49 16.49 0 0 1 16.49 16.49v17.77h-33v-17.77a16.49 16.49 0 0 1 16.51-16.49zm.86-16.14a13.81 13.81 0 1 1 -14 18m13.71-18.59s0 18.64-15.32 18.64" fill="#cef6da" stroke-width=".5"/><path d="m213.17 195.21h49.85v3.3h-49.85zm0 6.66h38.98v3.3h-38.98z"/></g></svg>