<svg width="220" height="220" fill="none" xmlns="http://www.w3.org/2000/svg"><path d="M110.203 219.863c60.587 0 109.702-49.115 109.702-109.702C219.905 49.574 170.79.458 110.203.458 49.616.458.5 49.574.5 110.161s49.116 109.702 109.703 109.702z" fill="#CEF6DA"/><path d="M170.446 68.9c-.829-.348-1.841-.547-3.018-.547h-9.088c-.067 0-.133.016-.199.016-1.675.034-3.052.415-4.163 1.161-1.36.912-2.338 2.322-2.919 4.329l-11.824 41.31-11.824-38.69c-.415-1.41-1.045-2.52-1.874-3.367-.962-.995-2.189-1.608-3.698-1.857a9.829 9.829 0 0 0-1.609-.15h-4.66c-.896 0-1.692.117-2.438.316-1.791.497-3.118 1.625-4.013 3.333-.266.53-.514 1.078-.713 1.725l-11.94 38.69-11.941-41.31c-.664-2.57-2.09-4.196-4.13-4.959-.879-.365-1.874-.547-3.018-.547h-9.204c-.05 0-.083.016-.116.016-1.692.017-3.035.415-3.98 1.145-1.592 1.227-2.057 3.383-1.161 6.136l22.322 70.929c.365 1.078.83 1.974 1.393 2.72.995 1.327 2.338 2.156 4.08 2.471a10.15 10.15 0 0 0 1.807.182h5.854c.398 0 .78-.033 1.161-.066 1.377-.166 2.554-.614 3.499-1.36 1.145-.895 1.974-2.206 2.505-3.947l12.305-40.597 12.172 40.597a9.747 9.747 0 0 0 1.41 2.753c.995 1.31 2.322 2.123 4.063 2.455a10.15 10.15 0 0 0 1.808.182h5.854c.398 0 .779-.033 1.161-.066 1.376-.166 2.554-.614 3.516-1.344 1.161-.895 2.023-2.205 2.603-3.947l22.372-70.979c.978-3.283.083-5.705-2.355-6.733z" fill="#3B9559"/><path d="M162.821 68.9c-.829-.348-1.841-.547-3.018-.547h-9.088c-.067 0-.133.016-.199.016-1.675.034-3.052.415-4.163 1.161-1.36.912-2.338 2.322-2.919 4.329l-11.824 41.31-11.824-38.69c-.415-1.41-1.045-2.52-1.874-3.367-.962-.995-2.189-1.608-3.698-1.857a9.829 9.829 0 0 0-1.609-.15h-4.66c-.896 0-1.692.117-2.438.316-1.791.497-3.118 1.625-4.013 3.333-.266.53-.514 1.078-.713 1.725l-11.94 38.69L76.9 73.859c-.664-2.57-2.09-4.196-4.13-4.959-.879-.365-1.874-.547-3.018-.547h-9.204c-.05 0-.083.016-.116.016-1.692.017-3.035.415-3.98 1.145-1.592 1.227-2.057 3.383-1.161 6.136l22.322 70.929c.365 1.078.83 1.974 1.393 2.72.995 1.327 2.338 2.156 4.08 2.471a10.15 10.15 0 0 0 1.807.182h5.854c.398 0 .78-.033 1.161-.066 1.377-.166 2.554-.614 3.5-1.36 1.144-.895 1.973-2.206 2.504-3.947l12.305-40.597 12.172 40.597a9.747 9.747 0 0 0 1.41 2.753c.995 1.31 2.322 2.123 4.063 2.455a10.15 10.15 0 0 0 1.808.182h5.854c.398 0 .779-.033 1.161-.066 1.376-.166 2.554-.614 3.516-1.344 1.161-.895 2.023-2.205 2.603-3.947l22.372-70.979c.978-3.283.083-5.705-2.355-6.733z" fill="#CEF6DA"/><path d="M155.196 68.9c-.829-.348-1.841-.547-3.018-.547h-9.088c-.067 0-.133.016-.199.016-1.675.034-3.052.415-4.163 1.161-1.36.912-2.338 2.322-2.919 4.329l-11.824 41.31-11.824-38.69c-.415-1.41-1.045-2.52-1.874-3.367-.962-.995-2.189-1.608-3.698-1.857a9.829 9.829 0 0 0-1.609-.15h-4.66c-.896 0-1.692.117-2.438.316-1.791.497-3.118 1.625-4.013 3.333a11 11 0 0 0-.713 1.725l-11.94 38.69-11.941-41.31c-.664-2.57-2.09-4.196-4.13-4.959-.879-.365-1.874-.547-3.018-.547h-9.204c-.05 0-.083.016-.116.016-1.692.017-3.035.415-3.98 1.145-1.592 1.227-2.057 3.383-1.161 6.136l22.322 70.929c.365 1.078.83 1.974 1.393 2.72.995 1.327 2.338 2.156 4.08 2.471a10.15 10.15 0 0 0 1.807.182h5.854c.398 0 .78-.033 1.161-.066 1.377-.166 2.554-.614 3.5-1.36 1.144-.895 1.973-2.206 2.504-3.947l12.305-40.597 12.172 40.597a9.747 9.747 0 0 0 1.41 2.753c.995 1.31 2.322 2.123 4.063 2.455a10.15 10.15 0 0 0 1.808.182h5.854c.398 0 .779-.033 1.161-.066 1.376-.166 2.554-.614 3.516-1.344 1.161-.895 2.023-2.205 2.603-3.947l22.372-70.979c.978-3.283.083-5.705-2.355-6.733z" fill="#005E22"/></svg>