<svg fill="none" xmlns="http://www.w3.org/2000/svg" viewbox="0 0 555 198" width="555" height="198" version="1.1" aria-label="The Web We Want"><path d="M33.324 56.574v2.83c0 2.018-1.099 3.118-3.118 3.118h-8.47v28.206c0 2.018-1.1 3.118-3.118 3.118h-4.146c-2.018 0-3.117-1.1-3.117-3.118V62.522H3.117c-2.019 0-3.118-1.1-3.118-3.118v-2.83c0-2.018 1.1-3.118 3.118-3.118h27.107c2.018 0 3.1 1.1 3.1 3.118zM35.992 90.71V55.24c0-2.018 1.1-3.118 3.118-3.118h4.145c2.019 0 3.118 1.1 3.118 3.118v12.85c1.55-3.063 4.434-4.902 8.705-4.902 8.651 0 10.67 7.21 10.67 13.211v14.293c0 2.018-1.1 3.117-3.118 3.117h-4.146c-2.018 0-3.118-1.099-3.118-3.117V77.246c0-3.226-1.045-5.821-4.09-5.821-3.065 0-4.903 2.541-4.903 6.524v12.743c0 2.018-1.1 3.117-3.118 3.117H39.11c-2.019.019-3.118-1.08-3.118-3.1zM68.451 78.94c0-8.308 6.11-15.752 16.617-15.752 8.994 0 16.041 5.425 16.203 14.995.054 1.785-1.208 2.542-3.172 2.542H78.2c0 2.65 3.064 5.767 8.543 5.767 1.73 0 3.803-.342 5.948-1.496 1.73-.865 3.172-.757 4.325.757l.811 1.046c1.208 1.495 1.154 3.28-.63 4.505-3.407 2.307-7.444 3.172-11.247 3.172-10.976-.018-17.5-6.939-17.5-15.535zm23.304-3.388c-.469-3.46-3.64-4.848-6.633-4.848-2.992 0-6.164 1.442-6.74 4.848h13.373zM141.552 87.988l-24.259-77.084c-1.55-4.794.649-7.912 5.714-7.912h9.984c4.019 0 6.741 1.946 7.786 5.965l12.977 44.913 12.976-42.047c1.172-3.893 3.767-5.84 7.786-5.84h5.065c4.019 0 6.614 1.947 7.785 5.84l12.851 42.047 12.85-44.913c1.172-4.019 3.767-5.965 7.912-5.965h9.859c5.064 0 7.263 3.118 5.839 7.912L212.4 87.988c-1.297 3.893-3.893 5.84-7.912 5.84h-6.362c-4.145 0-6.614-1.947-7.912-5.84l-13.229-44.12-13.373 44.12c-1.171 3.893-3.767 5.84-7.786 5.84h-6.362c-4.145 0-6.614-1.947-7.912-5.84zM232.658 60.34c0-18.689 13.752-35.432 37.38-35.432 20.239 0 36.082 12.201 36.46 33.739.126 4.019-2.721 5.713-7.137 5.713h-44.769c0 5.966 6.885 12.976 19.212 12.976 3.893 0 8.561-.775 13.373-3.37 3.893-1.946 7.138-1.694 9.733 1.694l1.82 2.343c2.722 3.37 2.595 7.39-1.424 10.13-7.659 5.19-16.743 7.136-25.304 7.136-24.691-.018-39.344-15.59-39.344-34.928zm52.429-7.659c-1.046-7.786-8.183-10.904-14.923-10.904-6.741 0-13.896 3.244-15.175 10.904h30.098zM336.344 84.87v1.947c0 4.541-2.469 7.01-7.011 7.01h-9.336c-4.541 0-7.011-2.469-7.011-7.01V7.01c0-4.542 2.47-7.011 7.011-7.011h9.336c4.542 0 7.011 2.47 7.011 7.01v28.423c4.29-6.885 11.679-10.507 20.384-10.507 18.564 0 32.189 15.049 32.189 35.163 0 20.113-13.625 35.162-32.189 35.162-8.705 0-16.112-3.622-20.384-10.381zm29.197-24.782c0-9.48-5.587-16.995-14.67-16.995-9.084 0-14.923 7.39-14.923 16.995 0 9.607 5.839 16.996 14.923 16.996 9.083 0 14.67-7.534 14.67-16.995zM27.665 190.719L3.388 113.635c-1.55-4.794.65-7.912 5.714-7.912h9.984c4.02 0 6.74 1.946 7.786 5.965l12.977 44.913 12.976-42.047c1.172-3.893 3.767-5.84 7.786-5.84h5.065c4.019 0 6.614 1.947 7.785 5.84l12.85 42.047 12.851-44.913c1.172-4.019 3.767-5.965 7.912-5.965h9.859c5.064 0 7.263 3.118 5.839 7.912l-24.277 77.084c-1.297 3.893-3.893 5.839-7.912 5.839h-6.362c-4.145 0-6.614-1.946-7.912-5.839l-13.229-44.12-13.373 44.12c-1.171 3.893-3.767 5.839-7.786 5.839H35.56c-4.145 0-6.596-1.946-7.894-5.839zM118.753 163.072c0-18.69 13.752-35.434 37.38-35.434 20.239 0 36.082 12.202 36.46 33.739.126 4.019-2.721 5.714-7.137 5.714h-44.769c0 5.965 6.885 12.976 19.212 12.976 3.893 0 8.561-.775 13.373-3.37 3.893-1.947 7.138-1.694 9.733 1.694l1.82 2.343c2.722 3.37 2.596 7.389-1.424 10.129-7.659 5.191-16.743 7.137-25.304 7.137-24.673-.018-39.344-15.59-39.344-34.928zm52.429-7.66c-1.045-7.786-8.183-10.904-14.923-10.904-6.741 0-13.896 3.244-15.175 10.904h30.098zM247.095 190.719l-24.277-77.084c-1.55-4.794.648-7.912 5.713-7.912h9.985c4.019 0 6.74 1.946 7.785 5.965l12.977 44.913 12.977-42.047c1.171-3.893 3.766-5.84 7.785-5.84h5.065c4.019 0 6.614 1.947 7.786 5.84l12.85 42.047 12.851-44.913c1.171-4.019 3.766-5.965 7.912-5.965h9.858c5.065 0 7.263 3.118 5.84 7.912l-24.277 77.084c-1.298 3.893-3.893 5.839-7.912 5.839h-6.363c-4.145 0-6.614-1.946-7.912-5.839l-13.228-44.12-13.373 44.12c-1.172 3.893-3.767 5.839-7.786 5.839h-6.362c-4.128 0-6.597-1.946-7.894-5.839zM338.705 162.819c0-20.113 13.625-35.163 32.063-35.163 8.831 0 16.221 3.641 20.51 10.508v-2.073c0-4.542 2.469-7.011 7.011-7.011h9.336c4.542 0 7.011 2.469 7.011 7.011v53.474c0 4.542-2.469 7.011-7.011 7.011h-9.336c-4.542 0-7.011-2.469-7.011-7.011v-1.946c-4.289 6.74-11.679 10.381-20.51 10.381-18.438-.018-32.063-15.067-32.063-35.181zm52.807 0c0-9.606-5.713-16.995-14.797-16.995-9.209 0-14.67 7.533-14.67 16.995 0 9.48 5.443 16.996 14.67 16.996 9.102 0 14.797-7.39 14.797-16.996zM425.377 189.547v-53.456c0-4.542 2.47-7.011 7.011-7.011h9.336c4.542 0 7.011 2.469 7.011 7.011v2.596c3.497-6.885 9.985-11.031 19.591-11.031 19.465 0 24.007 16.221 24.007 29.72v32.189c0 4.542-2.47 7.011-7.011 7.011h-9.336c-4.542 0-7.011-2.469-7.011-7.011v-30.26c0-7.263-2.343-13.103-9.21-13.103-6.885 0-11.03 5.713-11.03 14.671v28.674c0 4.542-2.469 7.011-7.011 7.011h-9.336c-4.541 0-7.011-2.469-7.011-7.011zM506.481 173.723v-27.521h-6.092c-2.343 0-3.641-1.298-3.641-3.641v-9.858c0-2.343 1.298-3.641 3.641-3.641h8.182l2.343-12.724c.397-2.992 2.343-4.416 5.317-4.416h8.182c3.245 0 4.939 1.695 4.939 4.795v12.327h13.625c2.343 0 3.641 1.298 3.641 3.641v9.858c0 2.343-1.298 3.641-3.641 3.641h-13.625v27.918c0 4.019 1.946 5.587 4.289 5.587 3.118 0 4.668-2.722 4.668-5.714 0-.648 0-1.423-.126-2.198-.252-2.47.523-3.767 2.992-3.767h8.687c1.946 0 3.496.775 4.019 2.721.649 1.821.775 3.767.901 5.191 0 16.617-11.805 22.06-23.754 22.06-11.697 0-24.547-5.064-24.547-24.259z" fill="#005E22"/></svg>
